<?xml version="1.0" encoding="UTF-8" standalone="no"?>
<!-- Created with Inkscape (http://www.inkscape.org/) -->

<svg
   xmlns:dc="http://purl.org/dc/elements/1.1/"
   xmlns:cc="http://creativecommons.org/ns#"
   xmlns:rdf="http://www.w3.org/1999/02/22-rdf-syntax-ns#"
   xmlns:svg="http://www.w3.org/2000/svg"
   xmlns="http://www.w3.org/2000/svg"
   xmlns:sodipodi="http://sodipodi.sourceforge.net/DTD/sodipodi-0.dtd"
   xmlns:inkscape="http://www.inkscape.org/namespaces/inkscape"
   width="800"
   height="800"
   viewBox="0 0 799.99998 799.99997"
   id="svg2"
   version="1.1"
   inkscape:version="0.91 r13725"
   inkscape:export-filename="/home/olivier/logoV0_1.png"
   inkscape:export-xdpi="90"
   inkscape:export-ydpi="90"
   sodipodi:docname="logoV0.svg">
  <defs
     id="defs4" />
  <sodipodi:namedview
     id="base"
     pagecolor="#ffffff"
     bordercolor="#666666"
     borderopacity="1.0"
     inkscape:pageopacity="0.0"
     inkscape:pageshadow="2"
     inkscape:zoom="0.33530482"
     inkscape:cx="361.2791"
     inkscape:cy="156.40976"
     inkscape:document-units="px"
     inkscape:current-layer="layer1"
     showgrid="false"
     inkscape:snap-intersection-paths="true"
     inkscape:window-width="1366"
     inkscape:window-height="721"
     inkscape:window-x="-2"
     inkscape:window-y="24"
     inkscape:window-maximized="1"
     showguides="false"
     units="px" />
  <metadata
     id="metadata7">
    <rdf:RDF>
      <cc:Work
         rdf:about="">
        <dc:format>image/svg+xml</dc:format>
        <dc:type
           rdf:resource="http://purl.org/dc/dcmitype/StillImage" />
        <dc:title></dc:title>
      </cc:Work>
    </rdf:RDF>
  </metadata>
  <g
     inkscape:label="Calque 1"
     inkscape:groupmode="layer"
     id="layer1"
     transform="translate(0,-252.36225)">
    <circle
       style="fill:#87aade;fill-opacity:1;fill-rule:evenodd;stroke:none;stroke-width:1px;stroke-linecap:butt;stroke-linejoin:miter;stroke-opacity:1"
       id="path3336"
       cx="432.70209"
       cy="647.03033"
       r="291.81097" />
    <rect
       style="fill:#000000"
       id="rect3359"
       width="369.05505"
       height="188.81886"
       x="423.70288"
       y="719.45715"
       inkscape:transform-center-x="-179.13662"
       inkscape:transform-center-y="108.09223"
       transform="matrix(0.995239,0.09746454,-0.09746454,0.995239,0,0)" />
    <rect
       style="fill:#000000"
       id="rect3359-7"
       width="369.05505"
       height="68.6614"
       x="278.88596"
       y="720.02362"
       inkscape:transform-center-x="-180.55448"
       inkscape:transform-center-y="-51.274725"
       transform="matrix(0.99570122,-0.09262337,0.09262337,0.99570122,0,0)" />
    <path
       style="fill:#000000"
       id="path3396"
       d="m 770.31714,434.23396 c 3.84304,5.13538 6.32561,11.23826 7.77923,18.21896 1.16664,6.64183 1.31594,13.43467 1.42689,20.21939 -0.006,5.60282 0.0151,11.2052 0.0722,16.80723 -0.80705,27.95347 -29.28674,38.6356 -48.37223,42.48992 -4.97546,0.41967 -9.95696,0.48697 -14.93982,0.53721 -3.37329,0.40886 -5.98275,-0.12977 -8.96328,-2.23788 0,0 39.06489,-35.48999 39.06489,-35.48999 l 0,0 c 2.51485,0.83466 5.21221,0.0422 7.78502,0.33375 4.77078,0.007 9.60248,-0.0574 14.2741,-1.50466 14.52686,-5.63046 41.59781,-33.91316 -33.68189,28.22662 -0.8877,0.73274 2.47253,0.0213 2.98803,-1.20327 0.2733,-0.64921 -10e-4,-1.49549 -0.003,-2.24323 0.10159,-5.61727 0.19294,-11.23542 0.15689,-16.85505 0.0106,-6.29867 -0.0415,-12.64456 -0.83284,-18.86729 -1.0715,-6.04006 -3.17512,-11.14714 -6.78439,-15.12908 0,0 40.03078,-33.30263 40.03078,-33.30263 z"
       inkscape:connector-curvature="0" />
    <path
       style="fill:#ff0000"
       d="m 747.24023,369.54688 c -34.64464,-0.0936 -69.90535,4.68248 -101.50684,19.55774 -62.14449,26.47546 -116.54901,67.38862 -170.87257,106.83154 -46.62591,34.48698 -90.89134,72.04719 -133.35696,111.51729 -64.40949,57.27174 -128.08713,115.35692 -192.39749,172.7317 -18.08644,15.33357 -36.50279,30.63543 -55.553636,44.56094 -6.785054,1.51101 -11.145005,7.78394 -16.982232,11.16552 -5.82204,4.49794 -13.030009,8.14335 -15.93183,15.2173 -6.317286,7.06406 -15.310264,12.03302 -19.855469,20.57031 -1.286582,4.35118 4.760664,4.49228 7.083985,2.36133 C 101.9972,838.10714 155.1777,800.25424 202.54398,755.57477 255.3431,707.2832 308.41857,659.32513 362.08398,612.01758 403.8528,574.5268 445.2697,536.91405 490.26456,503.33141 c 26.40041,-20.06049 53.20575,-39.64299 81.7603,-56.54043 24.56642,-14.03114 50.32941,-26.37742 77.44776,-34.49263 26.73337,-7.52547 54.9969,-8.14164 82.51176,-6.4214 14.27966,-12.10526 28.5604,-24.20926 42.84179,-36.3125 -9.19534,-0.006 -18.39068,0.005 -27.58594,-0.0176 z"
       id="path3350-7-7"
       inkscape:connector-curvature="0" />
    <path
       style="fill:#ff0000"
       d="m 720.45312,361.51758 c -34.96903,-0.41261 -68.5239,12.02885 -98.97265,28.29492 -57.36439,29.87234 -107.66209,71.11295 -158.28125,110.90297 -47.88272,38.65703 -92.86729,80.7482 -136.10547,124.49944 -67.29451,65.18814 -133.54248,131.45801 -200.94727,196.52728 -18.09919,16.47192 -35.941225,33.64183 -55.968746,47.67187 -8.882387,4.42051 -15.145097,12.60694 -23.513672,17.86133 -4.848992,2.79828 -7.137981,7.84201 -9.880859,12.35547 -8.000215,8.62267 -18.440385,15.91724 -22.648437,27.33594 -3.110299,5.61341 0.550948,4.88829 4.828125,3.13281 15.300044,-5.52189 26.358696,-18.18633 40.029297,-26.51953 C 111.18094,865.93869 159.56711,823.20843 204.23689,776.92394 274.72942,706.51207 346.4148,637.30811 418.10938,568.12109 c 39.18371,-37.09529 80.81289,-71.61343 124.14708,-103.7442 22.33368,-15.86947 45.58721,-30.5617 70.70117,-41.6574 25.9867,-12.41665 54.67012,-20.04385 83.63417,-18.28394 12.05827,0.36804 24.06693,1.75058 35.96093,3.73242 15.63327,-14.41824 31.26863,-28.8342 46.90235,-43.25195 -19.64316,-1.45388 -39.27812,-3.62096 -59.00196,-3.39844 z"
       id="path3350-7-7-7"
       inkscape:connector-curvature="0" />
    <path
       style="fill:#000080"
       d="m 650.8418,519.78125 c -9.57656,1.70635 -17.45326,8.44884 -26.14258,12.52734 -23.52116,13.10718 -45.72892,28.51099 -65.73877,46.55695 -17.74711,14.55796 -35.12967,30.09711 -54.75903,41.99223 -39.57204,17.98047 -84.0478,22.02498 -127.21914,21.98935 -39.65975,0.3355 -80.04092,3.12421 -118.71742,-6.83966 -30.10881,-7.51191 -59.90431,-18.49685 -85.22931,-36.75794 -4.95065,-2.23664 -9.399,-8.05231 -15.13125,-7.09327 -6.77191,2.73926 -11.7739,8.57291 -18.28087,11.88922 -9.20851,6.23412 -18.41648,12.46904 -27.62538,18.70258 17.17608,1.74623 29.10773,15.54588 44.45507,21.88867 34.59592,16.84116 72.48738,27.06453 110.82032,30.21484 30.5295,1.68817 61.12431,0.10546 91.67684,0.12394 42.21885,-0.83652 85.56705,-5.5117 123.89897,-24.49715 48.82812,-22.2906 91.10414,-56.00127 131.7818,-90.44134 9.43898,-8.06124 19.92334,-14.80496 29.9002,-21.9081 1.8692,-1.4285 2.70389,-5.03592 -0.0508,-5.96485 3.30688,-2.98669 8.92914,-5.86943 8.98437,-10.81054 -0.43336,-1.06879 -1.50146,-1.61986 -2.62304,-1.57227 z"
       id="path3367"
       inkscape:connector-curvature="0" />
    <g
       id="g5708"
       transform="matrix(0.99997451,0.00714027,-0.00714027,0.99997451,32.148175,-51.526754)">
      <g
         id="g5702">
        <flowRoot
           xml:space="preserve"
           id="flowRoot5694"
           style="font-style:normal;font-weight:normal;font-size:40px;line-height:125%;font-family:sans-serif;letter-spacing:0px;word-spacing:0px;fill:#ffffff;fill-opacity:1;stroke:none;stroke-width:1px;stroke-linecap:butt;stroke-linejoin:miter;stroke-opacity:1"
           transform="matrix(0.99254615,0.12186934,-0.12186934,0.99254615,77.617713,196.44851)"><flowRegion
             id="flowRegion5696"><rect
               id="rect5698"
               width="290.87537"
               height="106.35504"
               x="377.17346"
               y="586.27997"
               style="fill:#ffffff"
               ry="1.4231921" /></flowRegion><flowPara
             id="flowPara5700"
             style="font-style:italic;font-weight:normal;font-size:32.5px">Macaw-Movies</flowPara></flowRoot>      </g>
    </g>
  </g>
</svg>
